<?xml version="1.0" encoding="utf-8"?>


<!-- The icon can be used freely in both personal and commercial projects with no attribution required, but always appreciated. 
You may NOT sub-license, resell, rent, redistribute or otherwise transfer the icon without express written permission from iconmonstr.com -->


<!DOCTYPE svg PUBLIC "-//W3C//DTD SVG 1.1//EN" "http://www.w3.org/Graphics/SVG/1.1/DTD/svg11.dtd">

<svg version="1.1" xmlns="http://www.w3.org/2000/svg" xmlns:xlink="http://www.w3.org/1999/xlink" x="0px" y="0px"

	 width="512px" height="512px" viewBox="0 0 512 512" enable-background="new 0 0 512 512" xml:space="preserve">

<path id="help-6-icon" d="M261.564,332.241c-11.241,0-20.358-9.117-20.358-20.362c0-11.24,9.118-20.355,20.358-20.355

	c11.245,0,20.359,9.115,20.359,20.355C281.924,323.124,272.81,332.241,261.564,332.241z M277.572,272.065v3.661

	c0,0-30.524,0-33.562,0v-3.661c0-10.364,1.513-23.658,13.545-35.216c12.032-11.559,27.068-21.107,27.068-35.548

	c0-15.964-11.078-24.407-25.047-24.407c-23.277,0-24.796,24.139-25.371,29.454h-32.643c0.871-25.172,11.508-60.38,58.208-60.38

	c40.469,0,58.665,27.104,58.665,52.521C318.437,238.945,277.572,245.972,277.572,272.065z M50.918,446.647

	C67.583,413.5,86.083,368,85.135,336.276C62.684,309.204,50,274.316,50,238.783c0-100.183,97.19-173.431,206-173.431

	c108.132,0,206,72.698,206,173.431c0,104.894-115.562,202.853-274.119,163.914C159.083,420.5,95.583,438.5,50.918,446.647z

	 M256,105.469c-91.469,0-165.884,59.805-165.884,133.314c0,38.68,16.694,63.037,40.256,87.055

	c-4.789,35.662-16.289,66.662-16.289,66.662s34-9,72.629-31.56c147.805,39.194,235.171-46.094,235.171-122.157

	C421.883,165.273,347.468,105.469,256,105.469z"/>

</svg>

