<?xml version="1.0" encoding="utf-8"?>
<!-- Generator: Adobe Illustrator 19.1.0, SVG Export Plug-In . SVG Version: 6.00 Build 0)  -->
<svg version="1.1" id="Layer_1" xmlns="http://www.w3.org/2000/svg" xmlns:xlink="http://www.w3.org/1999/xlink" x="0px" y="0px"
	 viewBox="-933 537.6 26 26" enable-background="new -933 537.6 26 26" xml:space="preserve">
<g>
	<path fill="#6C6C6C" d="M-930.9,538.5c-0.6,0-1.1,0.5-1.1,1.1v16.8c0,0.6,0.5,1.1,1.1,1.1h21.8c0.6,0,1.1-0.5,1.1-1.1v-16.8
		c0-0.6-0.5-1.1-1.1-1.1H-930.9z M-910,553.5h-20v-13h20V553.5z M-915.1,562.7h-9.8c-0.8,0-1.4-0.6-1.4-1.4c0-0.8,0.6-1.4,1.4-1.4
		h9.8c0.8,0,1.4,0.6,1.4,1.4C-913.7,562-914.3,562.7-915.1,562.7z"/>
</g>
<path fill="#F9F9F9" d="M-922.6,543.8h15.5v19.6h-15.5V543.8z"/>
<path fill="#6C6C6C" d="M-909,562.6c0.5,0,0.9-0.4,0.9-0.9v-16.3c0-0.5-0.4-0.9-0.9-0.9h-11.8c-0.5,0-0.9,0.4-0.9,0.9v16.3
	c0,0.5,0.4,0.9,0.9,0.9H-909z M-920.1,560.3v-13.5h10.5v13.5H-920.1z M-915.3,561.5c0-0.2,0.2-0.4,0.4-0.4c0.2,0,0.4,0.2,0.4,0.4
	c0,0.2-0.2,0.4-0.4,0.4C-915.1,561.8-915.3,561.7-915.3,561.5z"/>
<path fill="#F9F9F9" d="M-917,548.5h9.4V563h-9.4V548.5z"/>
<path fill="#6C6C6C" d="M-908.3,550.2c0-0.7-0.5-1.1-1.1-1.1h-5.6c-0.6,0-1.1,0.5-1.1,1.1v11.3c0,0.7,0.5,1.1,1.1,1.1h5.6
	c0.7,0,1.1-0.5,1.1-1.1V550.2z M-913.2,550.2h1.7c0.1,0,0.3,0.1,0.3,0.3c0,0.2-0.1,0.3-0.3,0.3h-1.7c-0.1,0-0.3-0.1-0.3-0.3
	C-913.5,550.3-913.3,550.2-913.2,550.2z M-912.3,561.5c-0.3,0-0.5-0.2-0.5-0.5c0-0.3,0.2-0.5,0.5-0.5c0.3,0,0.5,0.2,0.5,0.5
	C-911.8,561.3-912,561.5-912.3,561.5z M-909.5,559.7h-5.6v-7.9h5.6V559.7z"/>
</svg>
