<svg xmlns="http://www.w3.org/2000/svg" width="512" height="512" viewBox="0 0 512 512"><path fill="white" d="M321.57 362.8l-63.498 63.5c-47.6 47.6-124.772 47.6-172.373 0-47.6-47.6-47.6-124.773 0-172.373l63.498-63.5 41.385 41.384-63.5 63.5c-24.703 24.704-24.702 64.9.002 89.604 24.703 24.704 64.9 24.705 89.604 0l63.498-63.498L321.57 362.8zm41.23-41.23l63.5-63.498c47.6-47.598 47.6-124.772 0-172.372-47.6-47.6-124.774-47.6-172.374 0l-63.498 63.5 41.384 41.383 63.5-63.5c24.703-24.703 64.9-24.702 89.603 0 24.704 24.705 24.704 64.9 0 89.605l-63.5 63.5 41.386 41.383z"/></svg>