<svg xmlns="http://www.w3.org/2000/svg" width="512" height="512" viewBox="0 0 512 512"><path fill="#768A7E" d="M238.833 462v-34.334h-68.667V462h68.667zM376.166 84.333h51.5v51.5H462V50h-85.834v34.333zM50 341.833h34.333v-68.667H50v68.668zm0-103h34.333v-68.667H50v68.667zm34.333-103v-51.5h51.5V50H50v85.833h34.333zM462 170.167h-34.334v68.667H462v-68.667zm0 103h-34.334v68.667H462v-68.668zm-34.334 103v51.5h-51.5V462H462v-85.834h-34.334zm-291.833 51.5h-51.5v-51.5H50V462h85.833v-34.334zm206 34.333v-34.334h-68.667V462h68.668zm-103-377.667V50h-68.667v34.333h68.667zm103 0V50h-68.667v34.333h68.668zm0 188.833h-68.667v68.668h-34.333v-68.668h-68.667v-34.333h68.667v-68.667h34.333v68.667h68.668v34.333z"/></svg>