<svg xmlns="http://www.w3.org/2000/svg" width="512" height="512" viewBox="0 0 512 512"><path fill="#768A7E" d="M261.564 332.24c-11.24 0-20.358-9.116-20.358-20.36 0-11.24 9.118-20.356 20.358-20.356 11.245 0 20.36 9.115 20.36 20.355 0 11.244-9.114 20.36-20.36 20.36zm16.008-60.175v3.66H244.01v-3.66c0-10.364 1.513-23.658 13.545-35.216 12.032-11.56 27.068-21.108 27.068-35.55 0-15.963-11.078-24.406-25.047-24.406-23.277 0-24.796 24.14-25.37 29.454H201.56c.87-25.172 11.508-60.38 58.208-60.38 40.47 0 58.665 27.104 58.665 52.52.002 40.457-40.863 47.484-40.863 73.577zM50.918 446.647C67.583 413.5 86.083 368 85.135 336.277 62.685 309.203 50 274.316 50 238.782c0-100.183 97.19-173.43 206-173.43 108.132 0 206 72.697 206 173.43 0 104.894-115.562 202.853-274.12 163.914C159.084 420.5 95.584 438.5 50.92 446.647zM256 105.47c-91.47 0-165.884 59.804-165.884 133.313 0 38.68 16.694 63.037 40.256 87.055-4.79 35.662-16.29 66.662-16.29 66.662s34-9 72.63-31.56c147.805 39.194 235.17-46.094 235.17-122.157 0-73.51-74.414-133.314-165.882-133.314z"/></svg>