<svg xmlns="http://www.w3.org/2000/svg" width="512" height="512" viewBox="0 0 512 512"><path fill="#FF0029" d="M373.223 142.573l-37.252 37.253c-20.224-20.224-48.16-32.73-79.02-32.73-61.72 0-111.752 50.055-111.752 111.775 0 .017 0-.015 0 0h43.412l-69.342 69.316L50 258.87h42.514c0-.007 0 .007 0 0 0-90.815 73.62-164.46 164.436-164.46 45.407 0 86.517 18.406 116.273 48.163zM462 253.13l-69.268-69.317-69.342 69.316h43.412c0 .015 0-.018 0 0 0 61.72-50.033 111.775-111.752 111.775-30.86 0-58.797-12.508-79.02-32.73l-37.253 37.252c29.758 29.757 70.867 48.162 116.273 48.162 90.814 0 164.436-73.645 164.436-164.46 0-.007 0 .008 0 0H462z"/></svg>