<svg xmlns="http://www.w3.org/2000/svg" viewBox="-933 537.6 26 26"><path fill="#6C6C6C" d="M-930.9 538.5c-.6 0-1.1.5-1.1 1.1v16.8c0 .6.5 1.1 1.1 1.1h21.8c.6 0 1.1-.5 1.1-1.1v-16.8c0-.6-.5-1.1-1.1-1.1h-21.8zm20.9 15h-20v-13h20v13zm-5.1 9.2h-9.8c-.8 0-1.4-.6-1.4-1.4 0-.8.6-1.4 1.4-1.4h9.8c.8 0 1.4.6 1.4 1.4 0 .7-.6 1.4-1.4 1.4z"/><path fill="#F9F9F9" d="M-922.6 543.8h15.5v19.6h-15.5v-19.6z"/><path fill="#6C6C6C" d="M-909 562.6c.5 0 .9-.4.9-.9v-16.3c0-.5-.4-.9-.9-.9h-11.8c-.5 0-.9.4-.9.9v16.3c0 .5.4.9.9.9h11.8zm-11.1-2.3v-13.5h10.5v13.5h-10.5zm4.8 1.2c0-.2.2-.4.4-.4s.4.2.4.4-.2.4-.4.4c-.2-.1-.4-.2-.4-.4z"/><path fill="#F9F9F9" d="M-917 548.5h9.4V563h-9.4v-14.5z"/><path fill="#6C6C6C" d="M-908.3 550.2c0-.7-.5-1.1-1.1-1.1h-5.6c-.6 0-1.1.5-1.1 1.1v11.3c0 .7.5 1.1 1.1 1.1h5.6c.7 0 1.1-.5 1.1-1.1v-11.3zm-4.9 0h1.7c.1 0 .3.1.3.3 0 .2-.1.3-.3.3h-1.7c-.1 0-.3-.1-.3-.3 0-.2.2-.3.3-.3zm.9 11.3c-.3 0-.5-.2-.5-.5s.2-.5.5-.5.5.2.5.5-.2.5-.5.5zm2.8-1.8h-5.6v-7.9h5.6v7.9z"/></svg>