<svg xmlns="http://www.w3.org/2000/svg" width="512" height="512" viewBox="0 0 512 512"><path fill="white" d="M301.1 392.786l-70.024 48.323c-52.488 36.22-124.406 23.037-160.63-29.452-36.225-52.492-23.038-124.406 29.45-160.63l70.024-48.323 31.494 45.636-70.02 48.323c-27.243 18.8-34.11 56.256-15.31 83.5 18.797 27.24 56.256 34.11 83.498 15.31l70.024-48.323 31.494 45.636zm91.313-90.966l48.745-69.73c36.54-52.27 23.787-124.262-28.485-160.803-52.27-36.54-124.267-23.786-160.805 28.485l-48.745 69.73 45.447 31.768 48.745-69.73c18.965-27.13 56.462-33.77 83.59-14.808 27.13 18.964 33.772 56.462 14.808 83.59l-48.744 69.73 45.443 31.768zm-41.63 88.76l-28.14 4.008 8.577 60.242 28.138-4.004-8.576-60.246zm43.16-67.29l-4.005 28.138 60.242 8.576 4.008-28.137-60.244-8.577zm9.668 100.83l20.093-20.1L380.67 361l-20.094 20.1 43.035 43.02z"/></svg>