<?xml version="1.0" encoding="utf-8"?>
<!-- Generator: Adobe Illustrator 19.1.0, SVG Export Plug-In . SVG Version: 6.00 Build 0)  -->
<svg version="1.1" id="Layer_1" xmlns="http://www.w3.org/2000/svg" xmlns:xlink="http://www.w3.org/1999/xlink" x="0px" y="0px"
	 viewBox="-933 537.5 26 26.2" enable-background="new -933 537.5 26 26.2" xml:space="preserve">
<g>
	<path fill="#6C6C6C" d="M-930.9,538.5c-0.6,0-1.1,0.5-1.1,1.1v16.8c0,0.6,0.5,1.1,1.1,1.1h21.8c0.6,0,1.1-0.5,1.1-1.1v-16.8
		c0-0.6-0.5-1.1-1.1-1.1H-930.9z M-910,553.5h-20v-13h20V553.5z M-915.1,562.7h-9.8c-0.8,0-1.4-0.6-1.4-1.4c0-0.8,0.6-1.4,1.4-1.4
		h9.8c0.8,0,1.4,0.6,1.4,1.4C-913.7,562-914.3,562.7-915.1,562.7z"/>
</g>
</svg>
