<svg xmlns="http://www.w3.org/2000/svg" width="24" height="24" viewBox="0 0 24 24"><path d="M18 10.03V3.61L11.964 0 6 3.57v6.498l-6 3.224v7.216L6.136 24 12 20.607 17.864 24 24 20.508V13.33l-6-3.3zm-1.143.037l-4.32 2.384V7.496l4.32-2.54v5.112zm-4.895-8.71l4.272 2.596-4.268 2.51L7.79 3.907l4.172-2.55zM1.79 13.63l4.778-2.53 4.237 2.418-4.668 2.667L1.79 13.63zm4.917 3.588l4.722-2.697v5.057l-4.723 2.757v-5.116zm6.512-3.746l4.246-2.39 4.77 2.594-4.368 2.51-4.65-2.714zm9.637 6.323l-4.42 2.54v-5.117l4.42-2.538v5.115z"/></svg>