<svg xmlns="http://www.w3.org/2000/svg" viewBox="-1468.6 2244.5 175.9 141"><path opacity=".7" fill="#55E08D" stroke="#FFF" stroke-width="2" stroke-miterlimit="10" d="M-1409.5 2245.5v23.7h-3.5c-3.3 0-5.7.6-7.3 1.9s-2.8 3.2-3.5 5.9c-.4 1.4-.6 5.4-.6 11.9-.1 6.5-.8 11.6-2.2 15.3-1 2.8-2.5 5.1-4.5 6.9-1.5 1.3-3.9 2.6-7.2 4 3.5 1.5 6.1 3 7.8 4.7 1.7 1.6 3.1 4.1 4.3 7.4s1.8 8.6 1.8 15.8c0 6.5.4 10.7 1.1 12.7s1.9 3.4 3.6 4.2c1.7.8 5.1 1.2 10.2 1.2v23.4h-9.8c-10.2 0-17.4-1-21.6-3.1-4.3-2-7.3-5-9.1-9-1.8-3.9-2.7-9.8-2.7-17.7 0-1.7.1-3.5.2-5.2.1-1.1.1-2.1.1-3.3 0-5.6-.5-9.6-1.6-11.9-1.1-2.4-2.7-4.1-4.7-5.1-2.1-1.1-5-1.6-8.9-1.7v-24.9c4 0 7-.6 9-1.7 2-1.2 3.5-2.9 4.6-5.3 1-2.4 1.6-6.4 1.6-12.1v-2.5c-.1-1.1-.1-2.2-.1-3.3 0-8.5.8-14.7 2.3-18.5s3.7-6.7 6.4-8.7c2-1.5 4.8-2.7 8.3-3.5 4.6-1 9.9-1.5 15.9-1.5h10.1zm67.8 0c5.9 0 11.2.5 15.9 1.5 3.5.8 6.2 1.9 8.3 3.5 2.7 2 4.8 4.9 6.4 8.7 1.5 3.8 2.3 10 2.3 18.5 0 1.1 0 2.2-.1 3.3v2.5c0 5.7.5 9.7 1.6 12.1 1 2.4 2.6 4.2 4.6 5.3 2 1.2 5 1.7 9 1.7v24.8c-3.9.1-6.9.7-8.9 1.7-2.1 1.1-3.6 2.8-4.7 5.1-1.1 2.4-1.6 6.3-1.6 11.9 0 1.1 0 2.2.1 3.3.1 1.7.2 3.5.2 5.2 0 7.9-.9 13.7-2.7 17.7-1.8 3.9-4.9 6.9-9.1 9-4.3 2-11.5 3.1-21.6 3.1h-9.8V2361c5.1 0 8.5-.4 10.2-1.2 1.7-.8 2.9-2.2 3.6-4.2s1.1-6.2 1.1-12.7c0-7.2.6-12.5 1.8-15.8s2.6-5.8 4.3-7.4c1.7-1.6 4.3-3.2 7.8-4.7-3.4-1.3-5.8-2.7-7.2-4-1.9-1.7-3.4-4-4.5-6.9-1.4-3.7-2.1-8.8-2.2-15.3-.1-6.5-.3-10.4-.6-11.9-.7-2.6-1.8-4.6-3.5-5.9-1.6-1.3-4.1-1.9-7.3-1.9h-3.5v-23.6h10.1z"/><path opacity=".9" fill="#109106" stroke="#FFF" stroke-width="2" stroke-miterlimit="10" d="M-1443.5 2293h37l25.8 48.4 25.4-76.4h35.9l-42.5 106h-38.4l-43.2-78z"/></svg>