<?xml version="1.0" encoding="utf-8"?>
<!-- Generator: Adobe Illustrator 19.1.0, SVG Export Plug-In . SVG Version: 6.00 Build 0)  -->
<svg version="1.1" id="Layer_1" xmlns="http://www.w3.org/2000/svg" xmlns:xlink="http://www.w3.org/1999/xlink" x="0px" y="0px"
	 viewBox="0 0 180.3 174.3" enable-background="new 0 0 180.3 174.3" xml:space="preserve">
<g>
	<g>
	</g>
	<g opacity="0.7">
		<path fill="#758A7E" d="M61.5,20.2v23.7H58c-3.3,0-5.7,0.6-7.3,1.9c-1.6,1.3-2.8,3.2-3.5,5.9c-0.4,1.4-0.6,5.4-0.6,11.9
			c-0.1,6.5-0.8,11.6-2.2,15.3c-1,2.8-2.5,5.1-4.5,6.9c-1.5,1.3-3.9,2.6-7.2,4c3.5,1.5,6.1,3,7.8,4.7c1.7,1.6,3.1,4.1,4.3,7.4
			c1.2,3.3,1.8,8.6,1.8,15.8c0,6.5,0.4,10.7,1.1,12.7c0.7,2,1.9,3.4,3.6,4.2c1.7,0.8,5.1,1.2,10.2,1.2v23.4h-9.8
			c-10.2,0-17.4-1-21.6-3.1c-4.3-2-7.3-5-9.1-9c-1.8-3.9-2.7-9.8-2.7-17.7c0-1.7,0.1-3.5,0.2-5.2c0.1-1.1,0.1-2.1,0.1-3.3
			c0-5.6-0.5-9.6-1.6-11.9c-1.1-2.4-2.7-4.1-4.7-5.1c-2.1-1.1-5-1.6-8.9-1.7V77.4c4,0,7-0.6,9-1.7c2-1.2,3.5-2.9,4.6-5.3
			c1-2.4,1.6-6.4,1.6-12.1v-2.5c-0.1-1.1-0.1-2.2-0.1-3.3c0-8.5,0.8-14.7,2.3-18.5c1.5-3.8,3.7-6.7,6.4-8.7c2-1.5,4.8-2.7,8.3-3.5
			c4.6-1,9.9-1.5,15.9-1.5H61.5z"/>
		<path fill="#758A7E" d="M73,51.2h34v29.5H73V51.2z M73,98.8h34V123c0,8.9-2,15.9-6,21.1c-4,5.2-10.9,9.7-20.5,13.7L73,144.9
			c6-2.6,10.2-5.2,12.5-7.8c2.3-2.6,3.5-5.6,3.8-9.1H73V98.8z"/>
	</g>
	<g opacity="0.7">
		<path fill="#758A7E" d="M129.3,20.2c5.9,0,11.2,0.5,15.9,1.5c3.5,0.8,6.2,1.9,8.3,3.5c2.7,2,4.8,4.9,6.4,8.7
			c1.5,3.8,2.3,10,2.3,18.5c0,1.1,0,2.2-0.1,3.3v2.5c0,5.7,0.5,9.7,1.6,12.1c1,2.4,2.6,4.2,4.6,5.3c2,1.2,5,1.7,9,1.7v24.8
			c-3.9,0.1-6.9,0.7-8.9,1.7c-2.1,1.1-3.6,2.8-4.7,5.1c-1.1,2.4-1.6,6.3-1.6,11.9c0,1.1,0,2.2,0.1,3.3c0.1,1.7,0.2,3.5,0.2,5.2
			c0,7.9-0.9,13.7-2.7,17.7c-1.8,3.9-4.9,6.9-9.1,9c-4.3,2-11.5,3.1-21.6,3.1h-9.8v-23.4c5.1,0,8.5-0.4,10.2-1.2
			c1.7-0.8,2.9-2.2,3.6-4.2c0.7-2,1.1-6.2,1.1-12.7c0-7.2,0.6-12.5,1.8-15.8c1.2-3.3,2.6-5.8,4.3-7.4c1.7-1.6,4.3-3.2,7.8-4.7
			c-3.4-1.3-5.8-2.7-7.2-4c-1.9-1.7-3.4-4-4.5-6.9c-1.4-3.7-2.1-8.8-2.2-15.3c-0.1-6.5-0.3-10.4-0.6-11.9c-0.7-2.6-1.8-4.6-3.5-5.9
			c-1.6-1.3-4.1-1.9-7.3-1.9h-3.5V20.2H129.3z"/>
	</g>
</g>
<g>
</g>
<g>
</g>
<g>
</g>
<g>
</g>
<g>
</g>
<g>
</g>
<g>
</g>
<g>
</g>
<g>
</g>
<g>
</g>
<g>
</g>
<g>
</g>
<g>
</g>
<g>
</g>
<g>
</g>
</svg>
