<svg xmlns="http://www.w3.org/2000/svg" width="512" height="512" viewBox="0 0 512 512"><path fill="#768A7E" d="M256 90c91.74 0 166 74.244 166 166 0 91.74-74.245 166-166 166-91.74 0-166-74.245-166-166 0-91.74 74.244-166 166-166m0-40C142.23 50 50 142.23 50 256s92.23 206 206 206 206-92.23 206-206S369.77 50 256 50zm2.025 329.51c-14.546 0-26.343-11.796-26.343-26.348 0-14.543 11.797-26.336 26.343-26.336 14.55 0 26.342 11.793 26.342 26.336 0 14.552-11.793 26.35-26.342 26.35zm20.71-77.864v4.74h-43.423v-4.74c0-13.408 1.956-30.61 17.523-45.565 15.57-14.957 35.024-27.31 35.024-45.995 0-20.655-14.336-31.58-32.41-31.58-30.116 0-32.085 31.233-32.827 38.11H180.39c1.125-32.57 14.89-78.126 75.315-78.126 52.363 0 75.905 35.07 75.905 67.956 0 52.347-52.875 61.44-52.875 95.2z"/></svg>