<svg xmlns="http://www.w3.org/2000/svg" viewBox="-1124.1 1942 320.1 476"><path fill="#768A7E" d="M-966 2088.9c0 11.4-9.2 20.6-20.6 20.6-11.4 0-20.6-9.2-20.6-20.6 0-11.4 9.2-20.6 20.6-20.6 11.4.1 20.6 9.3 20.6 20.6zm32.2-98.1c0 9.3-7.5 16.8-16.8 16.8s-16.8-7.5-16.8-16.8 7.5-16.8 16.8-16.8 16.8 7.5 16.8 16.8zm8.1 94.8c-15.9 0-28.9-12.9-28.9-28.9 0-15.9 13-28.9 28.9-28.9 15.9 0 28.9 12.9 28.9 28.9s-12.9 28.9-28.9 28.9zm-76.8-35.4c-13.6 0-24.6-11-24.6-24.6 0-13.6 11-24.6 24.6-24.6 13.6 0 24.6 11 24.6 24.6 0 13.6-11.1 24.6-24.6 24.6zm122.2 335.8h-167.4c-22.7 0-37.6-23.7-27.8-44.2l47.6-99.1c13.3-27.6 20.1-57.8 20.1-88.3v-19.6h29.2c0 20.8 2.5 58.7-16.2 105.5h41l52.1 109.3c5.7 12 22.7 5.5 16.8-6.8-5.3-11.1-15.3-32.2-41.8-87.3-26.4-54.9-22.9-99.9-22.9-120.7h29.2v19.6c0 30.6 6.9 60.8 20.1 88.3l47.6 99.1c10 20.5-4.9 44.2-27.6 44.2z"/></svg>