<?xml version="1.0" encoding="utf-8"?>

<!-- License Agreement at http://iconmonstr.com/license/ -->

<!DOCTYPE svg PUBLIC "-//W3C//DTD SVG 1.1//EN" "http://www.w3.org/Graphics/SVG/1.1/DTD/svg11.dtd">
<svg version="1.1" xmlns="http://www.w3.org/2000/svg" xmlns:xlink="http://www.w3.org/1999/xlink" x="0px" y="0px"
	 width="512px" height="512px" viewBox="0 0 512 512" style="enable-background:new 0 0 512 512;" xml:space="preserve">
<path id="flask-7-icon" d="M253.984,164.94c0,11.354-9.205,20.56-20.56,20.56s-20.559-9.205-20.559-20.56
	s9.204-20.559,20.559-20.559S253.984,153.586,253.984,164.94z M286.241,66.82c0,9.289-7.531,16.82-16.821,16.82
	s-16.821-7.531-16.821-16.82c0-9.291,7.531-16.82,16.821-16.82S286.241,57.529,286.241,66.82z M294.34,161.617
	c-15.916,0-28.865-12.948-28.865-28.864c0-15.917,12.949-28.865,28.865-28.865s28.865,12.948,28.865,28.865
	C323.205,148.669,310.256,161.617,294.34,161.617z M217.471,126.212c-13.567,0-24.606-11.04-24.606-24.608
	s11.039-24.607,24.606-24.607c13.569,0,24.608,11.039,24.608,24.607S231.041,126.212,217.471,126.212z M339.707,462H172.293
	c-22.671,0-37.592-23.729-27.767-44.16l47.632-99.066c13.254-27.564,20.136-57.76,20.136-88.346v-19.641h29.174
	c0,20.844,2.479,58.704-16.161,105.529h40.978l52.064,109.282c5.748,12.02,22.731,5.53,16.778-6.839
	c-5.347-11.105-15.295-32.198-41.766-87.253c-26.389-54.882-22.874-99.906-22.874-120.72h29.217v19.641
	c0,30.586,6.882,60.781,20.136,88.347l47.633,99.064C377.298,438.271,362.379,462,339.707,462z"/>
</svg>
