<svg xmlns="http://www.w3.org/2000/svg" width="512" height="512" viewBox="0 0 512 512"><path fill="#768A7E" d="M253.984 164.94c0 11.354-9.205 20.56-20.56 20.56s-20.56-9.205-20.56-20.56 9.205-20.56 20.56-20.56 20.56 9.206 20.56 20.56zm32.257-98.12c0 9.29-7.53 16.82-16.82 16.82s-16.82-7.53-16.82-16.82S260.13 50 269.42 50s16.82 7.53 16.82 16.82zm8.1 94.797c-15.916 0-28.865-12.948-28.865-28.864 0-15.917 12.95-28.865 28.865-28.865s28.865 12.948 28.865 28.865c0 15.916-12.95 28.864-28.865 28.864zm-76.87-35.405c-13.566 0-24.605-11.04-24.605-24.608s11.04-24.607 24.606-24.607c13.57 0 24.61 11.04 24.61 24.607s-11.04 24.608-24.61 24.608zM339.708 462H172.293c-22.67 0-37.592-23.73-27.767-44.16l47.632-99.066c13.254-27.564 20.136-57.76 20.136-88.346v-19.64h29.174c0 20.843 2.48 58.703-16.16 105.528h40.977l52.064 109.282c5.747 12.02 22.73 5.53 16.777-6.84-5.347-11.104-15.295-32.197-41.766-87.252-26.388-54.882-22.873-99.906-22.873-120.72h29.217v19.64c0 30.587 6.882 60.782 20.136 88.348l47.633 99.064C377.298 438.27 362.38 462 339.707 462z"/></svg>