<?xml version="1.0" encoding="utf-8"?>
<!-- Generator: Adobe Illustrator 19.1.0, SVG Export Plug-In . SVG Version: 6.00 Build 0)  -->
<svg version="1.1" id="Layer_1" xmlns="http://www.w3.org/2000/svg" xmlns:xlink="http://www.w3.org/1999/xlink" x="0px" y="0px"
	 viewBox="0 0 178 178" enable-background="new 0 0 178 178" xml:space="preserve">
<path display="none" opacity="0.85" fill="#333" d="M87.9,41.2l85.9,39.2v19.9l-53.9,39.3l-10-25.8l28-23.4l-58-23.2L87.9,41.2z"
	/>
<path display="none" opacity="0.85" fill="#333" d="M89.1,144.5L2.1,105.5v-20l53.9-39.3l10,25.8l-28,23.4l59,23.3L89.1,144.5z"
	/>
<text transform="matrix(1.0812 0 0 1 9 127.2031)" font-family="'Arial-Black'" font-size="147.979px"> </text>
<text transform="matrix(1.0812 0 0 1 0 127.2031)" opacity="0.7" fill="#999" font-family="'Arial-Black'" font-size="147.979px">{ </text>
<path display="none" opacity="0.85" fill="#333" d="M46.6,159.7L93.4,5.5l29.9,13L76.2,171.7L46.6,159.7z"/>
<text transform="matrix(1.0812 0 0 1 116 127.2031)" opacity="0.7" fill="#999" font-family="'Arial-Black'" font-size="147.979px">}</text>
<g opacity="0.7">
	<path fill="#333" d="M25.5,67h37l25.8,48.5l25.4-76.2h35.9l-42.5,105.9H68.7L25.5,67z"/>
</g>
</svg>
